<!--?xml version="1.0" standalone="no"?-->
              <svg id="sw-js-blob-svg" viewBox="0 0 100 100" xmlns="http://www.w3.org/2000/svg" version="1.1">
                    <defs> 
                        <linearGradient id="sw-gradient" x1="0" x2="1" y1="1" y2="0">
                            <stop id="stop1" stop-color="rgba(69.619, 0, 228.888, 1)" offset="0%"></stop>
                            <stop id="stop2" stop-color="rgba(202.215, 196.552, 217.504, 1)" offset="100%"></stop>
                        </linearGradient>
                    </defs>
                <path fill="url(#sw-gradient)" d="M21.2,-24.5C29.1,-18.6,38.2,-13.5,40.7,-6.2C43.1,1,38.7,10.4,32.7,16.9C26.6,23.4,18.9,27,11.5,28.2C4.2,29.4,-2.8,28.2,-9.2,25.7C-15.6,23.2,-21.3,19.4,-25.5,13.9C-29.7,8.4,-32.4,1.1,-32.1,-6.5C-31.8,-14.1,-28.5,-22.1,-22.7,-28.4C-16.8,-34.6,-8.4,-39.2,-0.9,-38.2C6.6,-37.1,13.3,-30.4,21.2,-24.5Z" width="100%" height="100%" transform="translate(50 50)" stroke-width="0" style="transition: all 0.3s ease 0s;" stroke="url(#sw-gradient)"></path>
              </svg>